inDegrees=yes
name=ik_S44_A05_T01
DataType=double
version=3
OpenSimVersion=4.3-2021-08-27-4bc7ad9
endheader
time	pelvis_tilt	pelvis_list	pelvis_rotation	pelvis_tx	pelvis_ty	pelvis_tz	hip_flexion_r	hip_adduction_r	hip_rotation_r	knee_angle_r	knee_angle_r_beta	ankle_angle_r	subtalar_angle_r	mtp_angle_r	hip_flexion_l	hip_adduction_l	hip_rotation_l	knee_angle_l	knee_angle_l_beta	ankle_angle_l	subtalar_angle_l	mtp_angle_l	lumbar_extension	lumbar_bending	lumbar_rotation	arm_flex_r	arm_add_r	arm_rot_r	elbow_flex_r	pro_sup_r	wrist_flex_r	wrist_dev_r	arm_flex_l	arm_add_l	arm_rot_l	elbow_flex_l	pro_sup_l	wrist_flex_l	wrist_dev_l
19.25999999999968	-4.650173527976668	-5.696919481320712	39.18371359149969	0	0.9399999999999999	0	43.88898698018373	-10.20762057205599	-10.27191701433547	54.41303893559398	0.9496866854419858	0	0	0	43.88898698018373	-10.20762057205599	-10.27191701433547	54.41303893559398	0.9496866854419858	0	0	0	-3.431807434066308	-6.711261432323703	12.1320107971331	77.01948674241851	22.65550980837354	10.27482079466965	12.22749244831924	81.44358345671125	0	0	27.30857469181685	0.2806870080042378	7.505327418798877	49.61519622054529	137.6857050687529	0	0
19.27999999999968	-4.651970318713229	-5.695152022604725	39.21633403322883	0	0.9399999999999999	0	43.89138573002971	-10.20670824416002	-10.27091665776174	54.41395236756143	0.9497026278373106	0	0	0	43.89138573002971	-10.20670824416002	-10.27091665776174	54.41395236756143	0.9497026278373106	0	0	0	-3.43746045480494	-6.701575089420747	12.1242289408503	77.03048738385489	22.63484564337021	10.27220189159395	12.23430202853444	81.46222908917204	0	0	27.30926022670493	0.2979869045785248	7.538914990954526	49.66236742016869	137.644693818482	0	0
19.29999999999968	-4.653185136042157	-5.715787718402335	39.23959822434307	0	0.9399999999999999	0	43.89147810629949	-10.20664967183134	-10.2708669730225	54.41398589504316	0.9497032130022568	0	0	0	43.89147810629949	-10.20664967183134	-10.2708669730225	54.41398589504316	0.9497032130022568	0	0	0	-3.451592174641307	-6.716556475596429	12.12543810313635	77.05563570254863	22.61270763361644	10.37216871683492	12.2473276255341	81.45762709285343	0	0	27.27866935439099	0.2938074940003123	7.563798211379561	49.68168013211346	137.6796400027054	0	0
19.31999999999968	-4.657856483970217	-5.731620779328784	39.29472023193756	0	0.9399999999999999	0	43.89161871886024	-10.20655975966385	-10.27079092021525	54.41403652913594	0.9497040967338896	0	0	0	43.89161871886024	-10.20655975966385	-10.27079092021525	54.41403652913594	0.9497040967338896	0	0	0	-3.466042158986772	-6.724415756998263	12.11893258649516	77.08930729976933	22.60980006986363	10.64552564145892	12.24370639942074	81.47758731385794	0	0	27.22483830215537	0.2850785254696818	7.621447899778863	49.75661651276759	137.7521394661478	0	0
19.33999999999968	-4.661876949480716	-5.736714018698559	39.32581887648246	0	0.9399999999999999	0	43.89175899967231	-10.20647014560851	-10.27071509042256	54.41408707391868	0.9497049789067681	0	0	0	43.89175899967231	-10.20647014560851	-10.27071509042256	54.41408707391868	0.9497049789067681	0	0	0	-3.473890539326148	-6.72326147030568	12.10323516749619	77.09963933667488	22.64136362263884	10.89812234789676	12.17893951205746	81.58470124609001	0	0	27.19657745150278	0.2915207929289561	7.646407002343026	49.82185561408261	137.7756682023543	0	0
19.35999999999968	-4.665843965276387	-5.731808144883399	39.35039267586425	0	0.9399999999999999	0	43.89192758235988	-10.20636209010562	-10.27062375068887	54.41414759811757	0.9497060352533159	0	0	0	43.89192758235988	-10.20636209010562	-10.27062375068887	54.41414759811757	0.9497060352533159	0	0	0	-3.475916369355919	-6.713596872498467	12.08115255493587	77.10038824354469	22.68928306745835	11.09829538184993	12.03111838964407	81.7783290098423	0	0	27.16785851921441	0.306639232672445	7.631203860906322	49.87050579989675	137.7828981124288	0	0
19.37999999999968	-4.660979353301164	-5.73160285671991	39.36441759241482	0	0.9399999999999999	0	43.8920700367655	-10.20627110926752	-10.27054674393844	54.41419889086065	0.9497069304805649	0	0	0	43.8920700367655	-10.20627110926752	-10.27054674393844	54.41419889086065	0.9497069304805649	0	0	0	-3.474127928159909	-6.713091883222001	12.05662197356986	77.09863548982506	22.70648920324574	11.24046121371144	11.89868200735308	81.94201430734839	0	0	27.14984869935958	0.2821562602732156	7.578064291876951	49.89610063277075	137.7985865538888	0	0
19.39999999999968	-4.656507065919682	-5.714851792378187	39.36582269118496	0	0.9399999999999999	0	43.89190557916302	-10.20661834926885	-10.27075273549546	54.41416521629184	0.949706342748465	0	0	0	43.89190557916302	-10.20661834926885	-10.27075273549546	54.41416521629184	0.949706342748465	0	0	0	-3.461930401772342	-6.699886070653664	12.02826740334313	77.06811983662863	22.75975736202613	11.31910511574042	11.71852476247341	82.00646865449775	0	0	27.11524235090912	0.2641724127297652	7.499315636927221	49.90317745653224	137.8400345522664	0	0
19.41999999999967	-4.664393669217657	-5.711845519961563	39.35857022966234	0	0.9399999999999999	0	43.89198311221507	-10.20656962739429	-10.27071128721433	54.41419359287381	0.949706838013251	0	0	0	43.89198311221507	-10.20656962739429	-10.27071128721433	54.41419359287381	0.949706838013251	0	0	0	-3.466414796167961	-6.692229015281448	12.02785888551534	77.02762530023105	22.78398527080924	11.23444848654639	11.688699206073	81.96590592385309	0	0	27.13281097135696	0.2734939981440888	7.484349532579437	49.91521493553545	137.8332066510968	0	0
19.43999999999967	-4.649364417148202	-5.682497039130553	39.36967032717895	0	0.9399999999999999	0	43.89216089354959	-10.20645574563424	-10.27061503034301	54.41425750575282	0.9497079535034241	0	0	0	43.89216089354959	-10.20645574563424	-10.27061503034301	54.41425750575282	0.9497079535034241	0	0	0	-3.433936015762424	-6.682754079834169	12.0570399202261	76.994440028613	22.7725480873987	11.00048398292114	11.57798870774246	82.077709264731	0	0	27.04714099133612	0.2822987941802599	7.527634865665221	49.9142495917232	137.814830689974	0	0
19.45999999999967	-4.634240467666589	-5.65681832477468	39.29490012204083	0	0.9399999999999999	0	43.8925801614893	-10.20619356963554	-10.2703915756313	54.41441149151869	0.9497106410620397	0	0	0	43.8925801614893	-10.20619356963554	-10.2703915756313	54.41441149151869	0.9497106410620397	0	0	0	-3.397507882525196	-6.686148203600339	12.17095511462968	77.00035067653783	22.67747924338297	10.78818895262809	11.33122502796697	83.12002144851418	0	0	27.01231524856479	0.2814722532039333	7.589323341430654	49.90805878186929	137.7755576546251	0	0
19.47999999999967	-4.628167802410094	-5.569615356909429	39.36273306834353	0	0.9399999999999999	0	43.89282607398838	-10.2060378378828	-10.27025941166249	54.414500763708	0.9497121991556735	0	0	0	43.89282607398838	-10.2060378378828	-10.27025941166249	54.414500763708	0.9497121991556735	0	0	0	-3.331239569865345	-6.632496826313223	12.25245060090955	76.88142377029558	22.34659237956624	10.83419987715118	11.24414798632666	83.59531460937717	0	0	26.87181614824334	0.3941350470527595	7.670225689304658	49.8845593983512	137.7658929265521	0	0
19.49999999999967	-4.623494195237867	-5.507754935344265	39.35371762917251	0	0.9399999999999999	0	43.89314954583732	-10.20582987962665	-10.27008379727655	54.41461647744475	0.9497142187413695	0	0	0	43.89314954583732	-10.20582987962665	-10.27008379727655	54.41461647744475	0.9497142187413695	0	0	0	-3.282414011972727	-6.596865356916798	12.33345673373972	76.8072104011387	21.99218231440261	10.9349195745847	11.13744900725083	84.49441139832389	0	0	26.77608232881946	0.4727756888160985	7.704861197848896	49.87304639611945	137.7714227638584	0	0
19.51999999999967	-4.590836597844508	-5.48820475872891	39.30117444887934	0	0.9399999999999999	0	43.89325109374479	-10.20576495870943	-10.27002886721404	54.41465298500371	0.9497148559184753	0	0	0	43.89325109374479	-10.20576495870943	-10.27002886721404	54.41465298500371	0.9497148559184753	0	0	0	-3.244274231903608	-6.603082450440048	12.33634714530294	76.79377002292577	21.78574101572688	11.03681521369376	11.15095719092905	84.53819481342724	0	0	26.71712327539741	0.3844387964108429	7.666775902165339	49.85284129717675	137.78104036637	0	0
19.53999999999967	-4.551165118270049	-5.411645997920056	39.30553875083956	0	0.9399999999999999	0	43.89349905080727	-10.2056063356063	-10.26989465629102	54.41474198444617	0.9497164092517788	0	0	0	43.89349905080727	-10.2056063356063	-10.26989465629102	54.41474198444617	0.9497164092517788	0	0	0	-3.16337318706624	-6.571626316041103	12.35442991815793	76.6027642669024	21.75022587911087	11.07493373440324	11.29433116803992	84.83749477319627	0	0	26.56231627260736	0.4219247748887335	7.706485621925728	49.82159235006862	137.7629854341544	0	0
19.55999999999967	-4.536960544973889	-5.392013221813786	39.20535145924905	0	0.9399999999999999	0	43.89393903387633	-10.20532069377448	-10.26965417239112	54.41489773145526	0.9497191275498874	0	0	0	43.89393903387633	-10.20532069377448	-10.26965417239112	54.41489773145526	0.9497191275498874	0	0	0	-3.13479071404767	-6.573862168562695	12.43609336306598	76.48047371353175	21.01142622609947	11.12189966361208	12.34735896657843	85.56726902326506	0	0	26.54013209274231	0.3973188286877096	7.765237959023955	49.84391843465969	137.7007860888804	0	0
19.57999999999967	-4.508991014981585	-5.340922694040644	39.1365650652938	0	0.9399999999999999	0	43.89444992661573	-10.20498890099762	-10.26937481712147	54.41507836206542	0.9497222801487647	0	0	0	43.89444992661573	-10.20498890099762	-10.26937481712147	54.41507836206542	0.9497222801487647	0	0	0	-3.079926718164062	-6.553686126390802	12.4554855381825	76.26452264432412	20.66808400267992	11.10305993667667	12.85038392935402	85.47560648766138	0	0	26.43102859501361	0.3869949183092778	7.697178937370821	49.84698274200908	137.6974514333574	0	0
19.59999999999967	-4.506795740995246	-5.345223043496029	39.06936776748525	0	0.9399999999999999	0	43.89487851615427	-10.20471158161094	-10.26914099432159	54.41523028944599	0.9497249317817795	0	0	0	43.89487851615427	-10.20471158161094	-10.26914099432159	54.41523028944599	0.9497249317817795	0	0	0	-3.077006941899894	-6.564883115627189	12.52304149711749	76.27953840674891	20.21199536488229	11.03587340514216	13.87289489282063	84.98800121079566	0	0	26.48123658529247	0.3003649878983193	7.79572306260144	49.85232676885139	137.5878693225812	0	0
19.61999999999967	-4.489956152442491	-5.315088523025731	38.97875456486378	0	0.9399999999999999	0	43.8952264696514	-10.20448647474838	-10.26895115901682	54.41535357125939	0.9497270834553313	0	0	0	43.8952264696514	-10.20448647474838	-10.26895115901682	54.41535357125939	0.9497270834553313	0	0	0	-3.043529070198257	-6.554359635372754	12.54780337442866	76.23053746066969	19.81040361695278	10.93867731280419	14.62082606271343	84.68446849131944	0	0	26.41675092939469	0.2859614031951591	7.726354797735085	49.86868294938039	137.6079378017639	0	0
19.63999999999967	-4.428061508895302	-5.158049754274698	38.84452178435804	0	0.9399999999999999	0	43.89571608790817	-10.20416925372934	-10.26868373377604	54.41552667306613	0.9497301046518	0	0	0	43.89571608790817	-10.20416925372934	-10.26868373377604	54.41552667306613	0.9497301046518	0	0	0	-2.897135351230852	-6.470646035056942	12.54176423066377	75.83338902934591	19.42624354179183	10.83184008194464	15.1312458465416	84.67760769488515	0	0	26.11918971273122	0.2858873559152962	7.596706172085738	49.88044908469033	137.5472746492544	0	0
